# xmcd CD database file
#
# Track frame offsets:
#	150
#	15697
#	32902
#	51361
#	66632
#	83088
#	102011
#	119111
#	138219
#	154416
#	166331
#	181896
#
# Disc length: 2546 seconds
#
# Revision: 0
# Processed by: cddbd v1.5.2PL0 Copyright (c) Steve Scherf et al.
# Submitted via: CDex 1.70beta2
#
DISCID=a609f00c
DTITLE=Louise Juul - Let Me Grow
DYEAR=2007
DGENRE=Country
TTITLE0=You'll See
TTITLE1=In My Mind
TTITLE2=Let Me Grow
TTITLE3=Maybe Life Is Just A Party
TTITLE4=I'm Not Looking Back For You
TTITLE5=Her Hope
TTITLE6=Rowing Along
TTITLE7=Tameless Child
TTITLE8=Killing Me Twice
TTITLE9=To Me
TTITLE10=For What's It Worth
TTITLE11=Aren't You Glad We Tried
EXTD=YEAR: 2007
EXTT0=
EXTT1=
EXTT2=
EXTT3=
EXTT4=
EXTT5=
EXTT6=
EXTT7=
EXTT8=
EXTT9=
EXTT10=
EXTT11=
PLAYORDER=
